<svg width="422" height="133" viewBox="0 0 422 133" fill="none" xmlns="http://www.w3.org/2000/svg">
<g filter="url(#filter0_di_1183_13)">
<circle cx="116.74" cy="88.5" r="35.5" fill="#A2D3E1"/>
</g>
<g filter="url(#filter1_di_1183_13)">
<path fill-rule="evenodd" clip-rule="evenodd" d="M212.963 68.3931C181.016 55.5027 133.761 42.5181 91.5075 42.5181C58.4231 42.5181 40.3053 55.0712 29.5195 67.7649C25.2325 65.4086 20.5927 62.6921 15.371 59.5453C-12.8856 42.5171 15.4997 23.3597 74.9639 28.7318C142.866 34.8663 191.598 55.9257 212.963 68.3931Z" fill="#160041"/>
</g>
<g filter="url(#filter2_d_1183_13)">
<path d="M181 73.84H189.64L202.12 105.04L214.6 73.84H223.24L202.12 121.36L181 73.84ZM230.481 55.6C230.481 54.128 230.993 52.88 232.017 51.856C233.105 50.832 234.353 50.32 235.761 50.32C237.233 50.32 238.481 50.832 239.505 51.856C240.529 52.88 241.041 54.128 241.041 55.6C241.041 57.008 240.529 58.256 239.505 59.344C238.481 60.368 237.233 60.88 235.761 60.88C234.353 60.88 233.105 60.368 232.017 59.344C230.993 58.256 230.481 57.008 230.481 55.6ZM231.921 73.84H239.601V118H231.921V73.84ZM257.243 104.464C258.139 105.808 259.163 107.056 260.315 108.208C261.467 109.36 262.779 110.288 264.251 110.992C265.787 111.632 267.451 111.952 269.243 111.952C271.419 111.952 273.115 111.472 274.331 110.512C275.611 109.488 276.251 108.112 276.251 106.384C276.251 104.848 275.739 103.568 274.715 102.544C273.755 101.456 272.507 100.56 270.971 99.856C269.435 99.088 267.803 98.384 266.075 97.744C264.155 96.976 262.203 96.08 260.219 95.056C258.299 93.968 256.667 92.592 255.323 90.928C254.043 89.2 253.403 87.056 253.403 84.496C253.403 81.872 254.075 79.696 255.419 77.968C256.827 76.24 258.619 74.96 260.795 74.128C263.035 73.296 265.339 72.88 267.707 72.88C270.075 72.88 272.283 73.264 274.331 74.032C276.443 74.8 278.299 75.824 279.899 77.104C281.499 78.384 282.747 79.856 283.643 81.52L277.499 85.456C276.283 83.792 274.747 82.416 272.891 81.328C271.099 80.24 269.051 79.696 266.747 79.696C265.147 79.696 263.771 80.048 262.619 80.752C261.467 81.456 260.891 82.544 260.891 84.016C260.891 85.168 261.339 86.192 262.235 87.088C263.131 87.984 264.283 88.784 265.691 89.488C267.099 90.192 268.571 90.864 270.107 91.504C272.667 92.528 275.003 93.648 277.115 94.864C279.227 96.016 280.891 97.424 282.107 99.088C283.387 100.752 284.027 102.896 284.027 105.52C284.027 109.36 282.619 112.56 279.803 115.12C277.051 117.68 273.403 118.96 268.859 118.96C265.915 118.96 263.259 118.448 260.891 117.424C258.523 116.336 256.507 114.96 254.843 113.296C253.243 111.632 252.027 109.936 251.195 108.208L257.243 104.464ZM294.138 55.6C294.138 54.128 294.65 52.88 295.674 51.856C296.762 50.832 298.01 50.32 299.418 50.32C300.89 50.32 302.138 50.832 303.162 51.856C304.186 52.88 304.698 54.128 304.698 55.6C304.698 57.008 304.186 58.256 303.162 59.344C302.138 60.368 300.89 60.88 299.418 60.88C298.01 60.88 296.762 60.368 295.674 59.344C294.65 58.256 294.138 57.008 294.138 55.6ZM295.578 73.84H303.258V118H295.578V73.84ZM315.235 95.92C315.235 91.44 316.227 87.472 318.211 84.016C320.259 80.56 323.011 77.84 326.467 75.856C329.923 73.872 333.795 72.88 338.083 72.88C342.435 72.88 346.307 73.872 349.699 75.856C353.155 77.84 355.875 80.56 357.859 84.016C359.907 87.472 360.931 91.44 360.931 95.92C360.931 100.336 359.907 104.304 357.859 107.824C355.875 111.28 353.155 114 349.699 115.984C346.307 117.968 342.435 118.96 338.083 118.96C333.795 118.96 329.923 117.968 326.467 115.984C323.011 114 320.259 111.28 318.211 107.824C316.227 104.304 315.235 100.336 315.235 95.92ZM323.011 95.92C323.011 98.992 323.651 101.712 324.931 104.08C326.275 106.448 328.067 108.336 330.307 109.744C332.611 111.088 335.203 111.76 338.083 111.76C340.963 111.76 343.523 111.088 345.763 109.744C348.067 108.336 349.859 106.448 351.139 104.08C352.483 101.712 353.155 98.992 353.155 95.92C353.155 92.848 352.483 90.128 351.139 87.76C349.859 85.328 348.067 83.44 345.763 82.096C343.523 80.752 340.963 80.08 338.083 80.08C335.203 80.08 332.611 80.752 330.307 82.096C328.067 83.44 326.275 85.328 324.931 87.76C323.651 90.128 323.011 92.848 323.011 95.92ZM399.801 91.12C399.801 87.472 399.001 84.72 397.401 82.864C395.801 81.008 393.465 80.08 390.393 80.08C388.153 80.08 386.169 80.56 384.441 81.52C382.777 82.416 381.465 83.696 380.505 85.36C379.609 87.024 379.161 88.944 379.161 91.12V118H371.481V73.84H379.161V80.752C380.633 78.064 382.457 76.08 384.633 74.8C386.873 73.52 389.433 72.88 392.313 72.88C396.985 72.88 400.665 74.448 403.353 77.584C406.105 80.656 407.481 84.848 407.481 90.16V118H399.801V91.12Z" fill="#160041"/>
</g>
<g filter="url(#filter3_d_1183_13)">
<path d="M168.236 30.72C168.236 31.872 168.476 32.892 168.956 33.78C169.46 34.668 170.132 35.376 170.972 35.904C171.836 36.408 172.808 36.66 173.888 36.66C174.776 36.66 175.604 36.528 176.372 36.264C177.164 35.976 177.848 35.604 178.424 35.148C179 34.668 179.408 34.164 179.648 33.636V37.236C179.072 37.908 178.244 38.436 177.164 38.82C176.108 39.18 175.016 39.36 173.888 39.36C172.28 39.36 170.828 38.988 169.532 38.244C168.236 37.5 167.204 36.48 166.436 35.184C165.692 33.864 165.32 32.376 165.32 30.72C165.32 29.04 165.692 27.552 166.436 26.256C167.204 24.96 168.236 23.94 169.532 23.196C170.828 22.452 172.28 22.08 173.888 22.08C175.016 22.08 176.108 22.272 177.164 22.656C178.244 23.016 179.072 23.532 179.648 24.204V27.804C179.408 27.252 179 26.748 178.424 26.292C177.848 25.836 177.164 25.476 176.372 25.212C175.604 24.924 174.776 24.78 173.888 24.78C172.808 24.78 171.836 25.032 170.972 25.536C170.132 26.04 169.46 26.748 168.956 27.66C168.476 28.548 168.236 29.568 168.236 30.72ZM184.132 10.92H187.012V39H184.132V10.92ZM192.969 22.44H195.849V39H192.969V22.44ZM200.169 13.8L193.689 19.2L192.069 18.12L197.469 12.36L200.169 13.8ZM212.4 28.92C212.4 27.552 212.1 26.52 211.5 25.824C210.9 25.128 210.024 24.78 208.872 24.78C208.032 24.78 207.288 24.96 206.64 25.32C206.016 25.656 205.524 26.136 205.164 26.76C204.828 27.384 204.66 28.104 204.66 28.92V39H201.78V22.44H204.66V25.032C205.212 24.024 205.896 23.28 206.712 22.8C207.552 22.32 208.512 22.08 209.592 22.08C211.344 22.08 212.724 22.668 213.732 23.844C214.764 24.996 215.28 26.568 215.28 28.56V39H212.4V28.92ZM220.694 15.6C220.694 15.048 220.886 14.58 221.27 14.196C221.678 13.812 222.146 13.62 222.674 13.62C223.226 13.62 223.694 13.812 224.078 14.196C224.462 14.58 224.654 15.048 224.654 15.6C224.654 16.128 224.462 16.596 224.078 17.004C223.694 17.388 223.226 17.58 222.674 17.58C222.146 17.58 221.678 17.388 221.27 17.004C220.886 16.596 220.694 16.128 220.694 15.6ZM221.234 22.44H224.114V39H221.234V22.44ZM231.342 30.72C231.342 31.872 231.582 32.892 232.062 33.78C232.566 34.668 233.238 35.376 234.078 35.904C234.942 36.408 235.914 36.66 236.994 36.66C237.882 36.66 238.71 36.528 239.478 36.264C240.27 35.976 240.954 35.604 241.53 35.148C242.106 34.668 242.514 34.164 242.754 33.636V37.236C242.178 37.908 241.35 38.436 240.27 38.82C239.214 39.18 238.122 39.36 236.994 39.36C235.386 39.36 233.934 38.988 232.638 38.244C231.342 37.5 230.31 36.48 229.542 35.184C228.798 33.864 228.426 32.376 228.426 30.72C228.426 29.04 228.798 27.552 229.542 26.256C230.31 24.96 231.342 23.94 232.638 23.196C233.934 22.452 235.386 22.08 236.994 22.08C238.122 22.08 239.214 22.272 240.27 22.656C241.35 23.016 242.178 23.532 242.754 24.204V27.804C242.514 27.252 242.106 26.748 241.53 26.292C240.954 25.836 240.27 25.476 239.478 25.212C238.71 24.924 237.882 24.78 236.994 24.78C235.914 24.78 234.942 25.032 234.078 25.536C233.238 26.04 232.566 26.748 232.062 27.66C231.582 28.548 231.342 29.568 231.342 30.72ZM248.533 33.888C248.533 34.512 248.677 35.052 248.965 35.508C249.277 35.964 249.697 36.312 250.225 36.552C250.777 36.768 251.401 36.876 252.097 36.876C252.985 36.876 253.777 36.696 254.473 36.336C255.193 35.976 255.757 35.472 256.165 34.824C256.597 34.152 256.813 33.384 256.813 32.52L257.389 34.68C257.389 35.736 257.065 36.612 256.417 37.308C255.793 38.004 255.013 38.52 254.077 38.856C253.165 39.192 252.253 39.36 251.341 39.36C250.333 39.36 249.385 39.156 248.497 38.748C247.633 38.316 246.937 37.704 246.409 36.912C245.881 36.12 245.617 35.16 245.617 34.032C245.617 32.424 246.181 31.14 247.309 30.18C248.461 29.196 250.057 28.704 252.097 28.704C253.297 28.704 254.293 28.848 255.085 29.136C255.901 29.4 256.549 29.712 257.029 30.072C257.509 30.408 257.833 30.684 258.001 30.9V32.592C257.161 32.016 256.297 31.608 255.409 31.368C254.521 31.104 253.573 30.972 252.565 30.972C251.629 30.972 250.861 31.092 250.261 31.332C249.685 31.572 249.253 31.908 248.965 32.34C248.677 32.772 248.533 33.288 248.533 33.888ZM248.101 26.256L246.697 24.132C247.321 23.676 248.173 23.22 249.253 22.764C250.357 22.308 251.677 22.08 253.213 22.08C254.509 22.08 255.637 22.284 256.597 22.692C257.581 23.076 258.337 23.64 258.865 24.384C259.417 25.128 259.693 26.04 259.693 27.12V39H256.813V27.516C256.813 26.94 256.717 26.472 256.525 26.112C256.333 25.728 256.057 25.428 255.697 25.212C255.361 24.996 254.965 24.84 254.509 24.744C254.053 24.648 253.573 24.6 253.069 24.6C252.253 24.6 251.509 24.696 250.837 24.888C250.189 25.08 249.637 25.308 249.181 25.572C248.725 25.836 248.365 26.064 248.101 26.256Z" fill="#160041"/>
</g>
<defs>
<filter id="filter0_di_1183_13" x="77.2402" y="53" width="79" height="79" filterUnits="userSpaceOnUse" color-interpolation-filters="sRGB">
<feFlood flood-opacity="0" result="BackgroundImageFix"/>
<feColorMatrix in="SourceAlpha" type="matrix" values="0 0 0 0 0 0 0 0 0 0 0 0 0 0 0 0 0 0 127 0" result="hardAlpha"/>
<feOffset dy="4"/>
<feGaussianBlur stdDeviation="2"/>
<feComposite in2="hardAlpha" operator="out"/>
<feColorMatrix type="matrix" values="0 0 0 0 0 0 0 0 0 0 0 0 0 0 0 0 0 0 0.25 0"/>
<feBlend mode="normal" in2="BackgroundImageFix" result="effect1_dropShadow_1183_13"/>
<feBlend mode="normal" in="SourceGraphic" in2="effect1_dropShadow_1183_13" result="shape"/>
<feColorMatrix in="SourceAlpha" type="matrix" values="0 0 0 0 0 0 0 0 0 0 0 0 0 0 0 0 0 0 127 0" result="hardAlpha"/>
<feOffset/>
<feGaussianBlur stdDeviation="12.5"/>
<feComposite in2="hardAlpha" operator="arithmetic" k2="-1" k3="1"/>
<feColorMatrix type="matrix" values="0 0 0 0 0.0117647 0 0 0 0 0.113725 0 0 0 0 0.219608 0 0 0 1 0"/>
<feBlend mode="normal" in2="shape" result="effect2_innerShadow_1183_13"/>
</filter>
<filter id="filter1_di_1183_13" x="0.364258" y="27.811" width="216.599" height="48.582" filterUnits="userSpaceOnUse" color-interpolation-filters="sRGB">
<feFlood flood-opacity="0" result="BackgroundImageFix"/>
<feColorMatrix in="SourceAlpha" type="matrix" values="0 0 0 0 0 0 0 0 0 0 0 0 0 0 0 0 0 0 127 0" result="hardAlpha"/>
<feOffset dy="4"/>
<feGaussianBlur stdDeviation="2"/>
<feComposite in2="hardAlpha" operator="out"/>
<feColorMatrix type="matrix" values="0 0 0 0 0 0 0 0 0 0 0 0 0 0 0 0 0 0 0.25 0"/>
<feBlend mode="normal" in2="BackgroundImageFix" result="effect1_dropShadow_1183_13"/>
<feBlend mode="normal" in="SourceGraphic" in2="effect1_dropShadow_1183_13" result="shape"/>
<feColorMatrix in="SourceAlpha" type="matrix" values="0 0 0 0 0 0 0 0 0 0 0 0 0 0 0 0 0 0 127 0" result="hardAlpha"/>
<feOffset dy="4"/>
<feGaussianBlur stdDeviation="5"/>
<feComposite in2="hardAlpha" operator="arithmetic" k2="-1" k3="1"/>
<feColorMatrix type="matrix" values="0 0 0 0 0.266667 0 0 0 0 0.25098 0 0 0 0 0.247059 0 0 0 1 0"/>
<feBlend mode="normal" in2="shape" result="effect2_innerShadow_1183_13"/>
</filter>
<filter id="filter2_d_1183_13" x="177" y="50.3198" width="234.481" height="79.04" filterUnits="userSpaceOnUse" color-interpolation-filters="sRGB">
<feFlood flood-opacity="0" result="BackgroundImageFix"/>
<feColorMatrix in="SourceAlpha" type="matrix" values="0 0 0 0 0 0 0 0 0 0 0 0 0 0 0 0 0 0 127 0" result="hardAlpha"/>
<feOffset dy="4"/>
<feGaussianBlur stdDeviation="2"/>
<feComposite in2="hardAlpha" operator="out"/>
<feColorMatrix type="matrix" values="0 0 0 0 0 0 0 0 0 0 0 0 0 0 0 0 0 0 0.25 0"/>
<feBlend mode="normal" in2="BackgroundImageFix" result="effect1_dropShadow_1183_13"/>
<feBlend mode="normal" in="SourceGraphic" in2="effect1_dropShadow_1183_13" result="shape"/>
</filter>
<filter id="filter3_d_1183_13" x="161.32" y="10.9199" width="102.373" height="36.4399" filterUnits="userSpaceOnUse" color-interpolation-filters="sRGB">
<feFlood flood-opacity="0" result="BackgroundImageFix"/>
<feColorMatrix in="SourceAlpha" type="matrix" values="0 0 0 0 0 0 0 0 0 0 0 0 0 0 0 0 0 0 127 0" result="hardAlpha"/>
<feOffset dy="4"/>
<feGaussianBlur stdDeviation="2"/>
<feComposite in2="hardAlpha" operator="out"/>
<feColorMatrix type="matrix" values="0 0 0 0 0 0 0 0 0 0 0 0 0 0 0 0 0 0 0.25 0"/>
<feBlend mode="normal" in2="BackgroundImageFix" result="effect1_dropShadow_1183_13"/>
<feBlend mode="normal" in="SourceGraphic" in2="effect1_dropShadow_1183_13" result="shape"/>
</filter>
</defs>
</svg>
