<svg width="424" height="135" viewBox="0 0 424 135" fill="none" xmlns="http://www.w3.org/2000/svg">
<g filter="url(#filter0_di_1183_12)">
<circle cx="116.342" cy="88" r="36" fill="#81ADBE"/>
</g>
<g filter="url(#filter1_di_1183_12)">
<path fill-rule="evenodd" clip-rule="evenodd" d="M211.811 68.4068C180.039 55.5869 133.043 42.6728 91.02 42.6728C58.1179 42.6728 40.0998 55.1565 29.3732 67.7804C25.11 65.437 20.4958 62.7355 15.3029 59.6062C-12.7983 42.6716 15.4309 23.6195 74.568 28.9622C142.099 35.0631 190.564 56.0081 211.811 68.4068Z" fill="#9ECCD9"/>
</g>
<g filter="url(#filter2_d_1183_12)">
<path d="M181 73.84H189.64L202.12 105.04L214.6 73.84H223.24L202.12 121.36L181 73.84ZM230.481 55.6C230.481 54.128 230.993 52.88 232.017 51.856C233.105 50.832 234.353 50.32 235.761 50.32C237.233 50.32 238.481 50.832 239.505 51.856C240.529 52.88 241.041 54.128 241.041 55.6C241.041 57.008 240.529 58.256 239.505 59.344C238.481 60.368 237.233 60.88 235.761 60.88C234.353 60.88 233.105 60.368 232.017 59.344C230.993 58.256 230.481 57.008 230.481 55.6ZM231.921 73.84H239.601V118H231.921V73.84ZM257.243 104.464C258.139 105.808 259.163 107.056 260.315 108.208C261.467 109.36 262.779 110.288 264.251 110.992C265.787 111.632 267.451 111.952 269.243 111.952C271.419 111.952 273.115 111.472 274.331 110.512C275.611 109.488 276.251 108.112 276.251 106.384C276.251 104.848 275.739 103.568 274.715 102.544C273.755 101.456 272.507 100.56 270.971 99.856C269.435 99.088 267.803 98.384 266.075 97.744C264.155 96.976 262.203 96.08 260.219 95.056C258.299 93.968 256.667 92.592 255.323 90.928C254.043 89.2 253.403 87.056 253.403 84.496C253.403 81.872 254.075 79.696 255.419 77.968C256.827 76.24 258.619 74.96 260.795 74.128C263.035 73.296 265.339 72.88 267.707 72.88C270.075 72.88 272.283 73.264 274.331 74.032C276.443 74.8 278.299 75.824 279.899 77.104C281.499 78.384 282.747 79.856 283.643 81.52L277.499 85.456C276.283 83.792 274.747 82.416 272.891 81.328C271.099 80.24 269.051 79.696 266.747 79.696C265.147 79.696 263.771 80.048 262.619 80.752C261.467 81.456 260.891 82.544 260.891 84.016C260.891 85.168 261.339 86.192 262.235 87.088C263.131 87.984 264.283 88.784 265.691 89.488C267.099 90.192 268.571 90.864 270.107 91.504C272.667 92.528 275.003 93.648 277.115 94.864C279.227 96.016 280.891 97.424 282.107 99.088C283.387 100.752 284.027 102.896 284.027 105.52C284.027 109.36 282.619 112.56 279.803 115.12C277.051 117.68 273.403 118.96 268.859 118.96C265.915 118.96 263.259 118.448 260.891 117.424C258.523 116.336 256.507 114.96 254.843 113.296C253.243 111.632 252.027 109.936 251.195 108.208L257.243 104.464ZM294.138 55.6C294.138 54.128 294.65 52.88 295.674 51.856C296.762 50.832 298.01 50.32 299.418 50.32C300.89 50.32 302.138 50.832 303.162 51.856C304.186 52.88 304.698 54.128 304.698 55.6C304.698 57.008 304.186 58.256 303.162 59.344C302.138 60.368 300.89 60.88 299.418 60.88C298.01 60.88 296.762 60.368 295.674 59.344C294.65 58.256 294.138 57.008 294.138 55.6ZM295.578 73.84H303.258V118H295.578V73.84ZM315.235 95.92C315.235 91.44 316.227 87.472 318.211 84.016C320.259 80.56 323.011 77.84 326.467 75.856C329.923 73.872 333.795 72.88 338.083 72.88C342.435 72.88 346.307 73.872 349.699 75.856C353.155 77.84 355.875 80.56 357.859 84.016C359.907 87.472 360.931 91.44 360.931 95.92C360.931 100.336 359.907 104.304 357.859 107.824C355.875 111.28 353.155 114 349.699 115.984C346.307 117.968 342.435 118.96 338.083 118.96C333.795 118.96 329.923 117.968 326.467 115.984C323.011 114 320.259 111.28 318.211 107.824C316.227 104.304 315.235 100.336 315.235 95.92ZM323.011 95.92C323.011 98.992 323.651 101.712 324.931 104.08C326.275 106.448 328.067 108.336 330.307 109.744C332.611 111.088 335.203 111.76 338.083 111.76C340.963 111.76 343.523 111.088 345.763 109.744C348.067 108.336 349.859 106.448 351.139 104.08C352.483 101.712 353.155 98.992 353.155 95.92C353.155 92.848 352.483 90.128 351.139 87.76C349.859 85.328 348.067 83.44 345.763 82.096C343.523 80.752 340.963 80.08 338.083 80.08C335.203 80.08 332.611 80.752 330.307 82.096C328.067 83.44 326.275 85.328 324.931 87.76C323.651 90.128 323.011 92.848 323.011 95.92ZM399.801 91.12C399.801 87.472 399.001 84.72 397.401 82.864C395.801 81.008 393.465 80.08 390.393 80.08C388.153 80.08 386.169 80.56 384.441 81.52C382.777 82.416 381.465 83.696 380.505 85.36C379.609 87.024 379.161 88.944 379.161 91.12V118H371.481V73.84H379.161V80.752C380.633 78.064 382.457 76.08 384.633 74.8C386.873 73.52 389.433 72.88 392.313 72.88C396.985 72.88 400.665 74.448 403.353 77.584C406.105 80.656 407.481 84.848 407.481 90.16V118H399.801V91.12Z" fill="#FEFEFE"/>
</g>
<g filter="url(#filter3_d_1183_12)">
<path d="M168.338 30.72C168.338 31.872 168.578 32.892 169.058 33.78C169.562 34.668 170.234 35.376 171.074 35.904C171.938 36.408 172.91 36.66 173.99 36.66C174.878 36.66 175.706 36.528 176.474 36.264C177.266 35.976 177.95 35.604 178.526 35.148C179.102 34.668 179.51 34.164 179.75 33.636V37.236C179.174 37.908 178.346 38.436 177.266 38.82C176.21 39.18 175.118 39.36 173.99 39.36C172.382 39.36 170.93 38.988 169.634 38.244C168.338 37.5 167.306 36.48 166.538 35.184C165.794 33.864 165.422 32.376 165.422 30.72C165.422 29.04 165.794 27.552 166.538 26.256C167.306 24.96 168.338 23.94 169.634 23.196C170.93 22.452 172.382 22.08 173.99 22.08C175.118 22.08 176.21 22.272 177.266 22.656C178.346 23.016 179.174 23.532 179.75 24.204V27.804C179.51 27.252 179.102 26.748 178.526 26.292C177.95 25.836 177.266 25.476 176.474 25.212C175.706 24.924 174.878 24.78 173.99 24.78C172.91 24.78 171.938 25.032 171.074 25.536C170.234 26.04 169.562 26.748 169.058 27.66C168.578 28.548 168.338 29.568 168.338 30.72ZM184.233 10.92H187.113V39H184.233V10.92ZM193.07 22.44H195.95V39H193.07V22.44ZM200.27 13.8L193.79 19.2L192.17 18.12L197.57 12.36L200.27 13.8ZM212.502 28.92C212.502 27.552 212.202 26.52 211.602 25.824C211.002 25.128 210.126 24.78 208.974 24.78C208.134 24.78 207.39 24.96 206.742 25.32C206.118 25.656 205.626 26.136 205.266 26.76C204.93 27.384 204.762 28.104 204.762 28.92V39H201.882V22.44H204.762V25.032C205.314 24.024 205.998 23.28 206.814 22.8C207.654 22.32 208.614 22.08 209.694 22.08C211.446 22.08 212.826 22.668 213.834 23.844C214.866 24.996 215.382 26.568 215.382 28.56V39H212.502V28.92ZM220.796 15.6C220.796 15.048 220.988 14.58 221.372 14.196C221.78 13.812 222.248 13.62 222.776 13.62C223.328 13.62 223.796 13.812 224.18 14.196C224.564 14.58 224.756 15.048 224.756 15.6C224.756 16.128 224.564 16.596 224.18 17.004C223.796 17.388 223.328 17.58 222.776 17.58C222.248 17.58 221.78 17.388 221.372 17.004C220.988 16.596 220.796 16.128 220.796 15.6ZM221.336 22.44H224.216V39H221.336V22.44ZM231.443 30.72C231.443 31.872 231.683 32.892 232.163 33.78C232.667 34.668 233.339 35.376 234.179 35.904C235.043 36.408 236.015 36.66 237.095 36.66C237.983 36.66 238.811 36.528 239.579 36.264C240.371 35.976 241.055 35.604 241.631 35.148C242.207 34.668 242.615 34.164 242.855 33.636V37.236C242.279 37.908 241.451 38.436 240.371 38.82C239.315 39.18 238.223 39.36 237.095 39.36C235.487 39.36 234.035 38.988 232.739 38.244C231.443 37.5 230.411 36.48 229.643 35.184C228.899 33.864 228.527 32.376 228.527 30.72C228.527 29.04 228.899 27.552 229.643 26.256C230.411 24.96 231.443 23.94 232.739 23.196C234.035 22.452 235.487 22.08 237.095 22.08C238.223 22.08 239.315 22.272 240.371 22.656C241.451 23.016 242.279 23.532 242.855 24.204V27.804C242.615 27.252 242.207 26.748 241.631 26.292C241.055 25.836 240.371 25.476 239.579 25.212C238.811 24.924 237.983 24.78 237.095 24.78C236.015 24.78 235.043 25.032 234.179 25.536C233.339 26.04 232.667 26.748 232.163 27.66C231.683 28.548 231.443 29.568 231.443 30.72ZM248.635 33.888C248.635 34.512 248.779 35.052 249.067 35.508C249.379 35.964 249.799 36.312 250.327 36.552C250.879 36.768 251.503 36.876 252.199 36.876C253.087 36.876 253.879 36.696 254.575 36.336C255.295 35.976 255.859 35.472 256.267 34.824C256.699 34.152 256.915 33.384 256.915 32.52L257.491 34.68C257.491 35.736 257.167 36.612 256.519 37.308C255.895 38.004 255.115 38.52 254.179 38.856C253.267 39.192 252.355 39.36 251.443 39.36C250.435 39.36 249.487 39.156 248.599 38.748C247.735 38.316 247.039 37.704 246.511 36.912C245.983 36.12 245.719 35.16 245.719 34.032C245.719 32.424 246.283 31.14 247.411 30.18C248.563 29.196 250.159 28.704 252.199 28.704C253.399 28.704 254.395 28.848 255.187 29.136C256.003 29.4 256.651 29.712 257.131 30.072C257.611 30.408 257.935 30.684 258.103 30.9V32.592C257.263 32.016 256.399 31.608 255.511 31.368C254.623 31.104 253.675 30.972 252.667 30.972C251.731 30.972 250.963 31.092 250.363 31.332C249.787 31.572 249.355 31.908 249.067 32.34C248.779 32.772 248.635 33.288 248.635 33.888ZM248.203 26.256L246.799 24.132C247.423 23.676 248.275 23.22 249.355 22.764C250.459 22.308 251.779 22.08 253.315 22.08C254.611 22.08 255.739 22.284 256.699 22.692C257.683 23.076 258.439 23.64 258.967 24.384C259.519 25.128 259.795 26.04 259.795 27.12V39H256.915V27.516C256.915 26.94 256.819 26.472 256.627 26.112C256.435 25.728 256.159 25.428 255.799 25.212C255.463 24.996 255.067 24.84 254.611 24.744C254.155 24.648 253.675 24.6 253.171 24.6C252.355 24.6 251.611 24.696 250.939 24.888C250.291 25.08 249.739 25.308 249.283 25.572C248.827 25.836 248.467 26.064 248.203 26.256Z" fill="#FEFEFE"/>
</g>
<defs>
<filter id="filter0_di_1183_12" x="76.3418" y="52" width="80" height="80" filterUnits="userSpaceOnUse" color-interpolation-filters="sRGB">
<feFlood flood-opacity="0" result="BackgroundImageFix"/>
<feColorMatrix in="SourceAlpha" type="matrix" values="0 0 0 0 0 0 0 0 0 0 0 0 0 0 0 0 0 0 127 0" result="hardAlpha"/>
<feOffset dy="4"/>
<feGaussianBlur stdDeviation="2"/>
<feComposite in2="hardAlpha" operator="out"/>
<feColorMatrix type="matrix" values="0 0 0 0 0 0 0 0 0 0 0 0 0 0 0 0 0 0 0.25 0"/>
<feBlend mode="normal" in2="BackgroundImageFix" result="effect1_dropShadow_1183_12"/>
<feBlend mode="normal" in="SourceGraphic" in2="effect1_dropShadow_1183_12" result="shape"/>
<feColorMatrix in="SourceAlpha" type="matrix" values="0 0 0 0 0 0 0 0 0 0 0 0 0 0 0 0 0 0 127 0" result="hardAlpha"/>
<feOffset/>
<feGaussianBlur stdDeviation="12.5"/>
<feComposite in2="hardAlpha" operator="arithmetic" k2="-1" k3="1"/>
<feColorMatrix type="matrix" values="0 0 0 0 0.0117647 0 0 0 0 0.113725 0 0 0 0 0.219608 0 0 0 1 0"/>
<feBlend mode="normal" in2="shape" result="effect2_innerShadow_1183_12"/>
</filter>
<filter id="filter1_di_1183_12" x="0.356445" y="28.0464" width="215.454" height="48.3604" filterUnits="userSpaceOnUse" color-interpolation-filters="sRGB">
<feFlood flood-opacity="0" result="BackgroundImageFix"/>
<feColorMatrix in="SourceAlpha" type="matrix" values="0 0 0 0 0 0 0 0 0 0 0 0 0 0 0 0 0 0 127 0" result="hardAlpha"/>
<feOffset dy="4"/>
<feGaussianBlur stdDeviation="2"/>
<feComposite in2="hardAlpha" operator="out"/>
<feColorMatrix type="matrix" values="0 0 0 0 0 0 0 0 0 0 0 0 0 0 0 0 0 0 0.25 0"/>
<feBlend mode="normal" in2="BackgroundImageFix" result="effect1_dropShadow_1183_12"/>
<feBlend mode="normal" in="SourceGraphic" in2="effect1_dropShadow_1183_12" result="shape"/>
<feColorMatrix in="SourceAlpha" type="matrix" values="0 0 0 0 0 0 0 0 0 0 0 0 0 0 0 0 0 0 127 0" result="hardAlpha"/>
<feOffset dy="4"/>
<feGaussianBlur stdDeviation="5"/>
<feComposite in2="hardAlpha" operator="arithmetic" k2="-1" k3="1"/>
<feColorMatrix type="matrix" values="0 0 0 0 0.266667 0 0 0 0 0.25098 0 0 0 0 0.247059 0 0 0 1 0"/>
<feBlend mode="normal" in2="shape" result="effect2_innerShadow_1183_12"/>
</filter>
<filter id="filter2_d_1183_12" x="177" y="50.3198" width="234.481" height="79.04" filterUnits="userSpaceOnUse" color-interpolation-filters="sRGB">
<feFlood flood-opacity="0" result="BackgroundImageFix"/>
<feColorMatrix in="SourceAlpha" type="matrix" values="0 0 0 0 0 0 0 0 0 0 0 0 0 0 0 0 0 0 127 0" result="hardAlpha"/>
<feOffset dy="4"/>
<feGaussianBlur stdDeviation="2"/>
<feComposite in2="hardAlpha" operator="out"/>
<feColorMatrix type="matrix" values="0 0 0 0 0 0 0 0 0 0 0 0 0 0 0 0 0 0 0.25 0"/>
<feBlend mode="normal" in2="BackgroundImageFix" result="effect1_dropShadow_1183_12"/>
<feBlend mode="normal" in="SourceGraphic" in2="effect1_dropShadow_1183_12" result="shape"/>
</filter>
<filter id="filter3_d_1183_12" x="161.422" y="10.9199" width="102.373" height="36.4399" filterUnits="userSpaceOnUse" color-interpolation-filters="sRGB">
<feFlood flood-opacity="0" result="BackgroundImageFix"/>
<feColorMatrix in="SourceAlpha" type="matrix" values="0 0 0 0 0 0 0 0 0 0 0 0 0 0 0 0 0 0 127 0" result="hardAlpha"/>
<feOffset dy="4"/>
<feGaussianBlur stdDeviation="2"/>
<feComposite in2="hardAlpha" operator="out"/>
<feColorMatrix type="matrix" values="0 0 0 0 0 0 0 0 0 0 0 0 0 0 0 0 0 0 0.25 0"/>
<feBlend mode="normal" in2="BackgroundImageFix" result="effect1_dropShadow_1183_12"/>
<feBlend mode="normal" in="SourceGraphic" in2="effect1_dropShadow_1183_12" result="shape"/>
</filter>
</defs>
</svg>
