<svg width="237" height="82" viewBox="0 0 237 82" fill="none" xmlns="http://www.w3.org/2000/svg">
<g filter="url(#filter0_di_1167_37)">
<circle cx="64.7282" cy="47.2009" r="19.1052" fill="#81ADBE"/>
</g>
<g filter="url(#filter1_di_1167_37)">
<path fill-rule="evenodd" clip-rule="evenodd" d="M115.91 36.6615C98.8819 29.7909 73.6954 22.8702 51.1743 22.8702C33.5403 22.8702 23.8835 29.561 18.1347 36.3267C15.8497 35.0708 13.3767 33.6229 10.5935 31.9457C-4.46734 22.8696 10.662 12.6587 42.3564 15.5221C78.548 18.7917 104.522 30.0163 115.91 36.6615Z" fill="#9ECCD9"/>
</g>
<g filter="url(#filter2_d_1167_37)">
<path d="M119 41.92L129.56 65.68L140.12 41.92H135.8L129.56 57.52L123.32 41.92H119ZM143.741 32.8C143.741 33.504 143.997 34.128 144.509 34.672C145.053 35.184 145.677 35.44 146.381 35.44C147.117 35.44 147.741 35.184 148.253 34.672C148.765 34.128 149.021 33.504 149.021 32.8C149.021 32.064 148.765 31.44 148.253 30.928C147.741 30.416 147.117 30.16 146.381 30.16C145.677 30.16 145.053 30.416 144.509 30.928C143.997 31.44 143.741 32.064 143.741 32.8ZM144.461 41.92V64H148.301V41.92H144.461ZM157.121 57.232L154.097 59.104C154.513 59.968 155.121 60.816 155.921 61.648C156.753 62.48 157.761 63.168 158.945 63.712C160.129 64.224 161.457 64.48 162.929 64.48C165.201 64.48 167.025 63.84 168.401 62.56C169.809 61.28 170.513 59.68 170.513 57.76C170.513 56.448 170.193 55.376 169.553 54.544C168.945 53.712 168.113 53.008 167.057 52.432C166.001 51.824 164.833 51.264 163.553 50.752C162.785 50.432 162.049 50.096 161.345 49.744C160.641 49.392 160.065 48.992 159.617 48.544C159.169 48.096 158.945 47.584 158.945 47.008C158.945 46.272 159.233 45.728 159.809 45.376C160.385 45.024 161.073 44.848 161.873 44.848C163.025 44.848 164.049 45.12 164.945 45.664C165.873 46.208 166.641 46.896 167.249 47.728L170.321 45.76C169.873 44.928 169.249 44.192 168.449 43.552C167.649 42.912 166.721 42.4 165.665 42.016C164.641 41.632 163.537 41.44 162.353 41.44C161.169 41.44 160.017 41.648 158.897 42.064C157.809 42.48 156.913 43.12 156.209 43.984C155.537 44.848 155.201 45.936 155.201 47.248C155.201 48.528 155.521 49.6 156.161 50.464C156.833 51.296 157.649 51.984 158.609 52.528C159.601 53.04 160.577 53.488 161.537 53.872C162.401 54.192 163.217 54.544 163.985 54.928C164.753 55.28 165.377 55.728 165.857 56.272C166.369 56.784 166.625 57.424 166.625 58.192C166.625 59.056 166.305 59.744 165.665 60.256C165.057 60.736 164.209 60.976 163.121 60.976C162.225 60.976 161.393 60.816 160.625 60.496C159.889 60.144 159.233 59.68 158.657 59.104C158.081 58.528 157.569 57.904 157.121 57.232ZM175.569 32.8C175.569 33.504 175.825 34.128 176.337 34.672C176.881 35.184 177.505 35.44 178.209 35.44C178.945 35.44 179.569 35.184 180.081 34.672C180.593 34.128 180.849 33.504 180.849 32.8C180.849 32.064 180.593 31.44 180.081 30.928C179.569 30.416 178.945 30.16 178.209 30.16C177.505 30.16 176.881 30.416 176.337 30.928C175.825 31.44 175.569 32.064 175.569 32.8ZM176.289 41.92V64H180.129V41.92H176.289ZM186.118 52.96C186.118 55.168 186.613 57.152 187.605 58.912C188.63 60.64 190.006 62 191.734 62.992C193.462 63.984 195.398 64.48 197.542 64.48C199.718 64.48 201.654 63.984 203.35 62.992C205.078 62 206.438 60.64 207.43 58.912C208.454 57.152 208.966 55.168 208.966 52.96C208.966 50.72 208.454 48.736 207.43 47.008C206.438 45.28 205.078 43.92 203.35 42.928C201.654 41.936 199.718 41.44 197.542 41.44C195.398 41.44 193.462 41.936 191.734 42.928C190.006 43.92 188.63 45.28 187.605 47.008C186.613 48.736 186.118 50.72 186.118 52.96ZM190.006 52.96C190.006 51.424 190.326 50.064 190.966 48.88C191.638 47.664 192.534 46.72 193.654 46.048C194.806 45.376 196.102 45.04 197.542 45.04C198.982 45.04 200.262 45.376 201.382 46.048C202.534 46.72 203.43 47.664 204.07 48.88C204.742 50.064 205.078 51.424 205.078 52.96C205.078 54.496 204.742 55.856 204.07 57.04C203.43 58.224 202.534 59.168 201.382 59.872C200.262 60.544 198.982 60.88 197.542 60.88C196.102 60.88 194.806 60.544 193.654 59.872C192.534 59.168 191.638 58.224 190.966 57.04C190.326 55.856 190.006 54.496 190.006 52.96ZM228.401 50.56V64H232.241V50.08C232.241 47.424 231.553 45.328 230.177 43.792C228.833 42.224 226.993 41.44 224.657 41.44C223.217 41.44 221.937 41.76 220.817 42.4C219.729 43.04 218.817 44.032 218.081 45.376V41.92H214.241V64H218.081V50.56C218.081 49.472 218.305 48.512 218.753 47.68C219.233 46.848 219.889 46.208 220.721 45.76C221.585 45.28 222.577 45.04 223.697 45.04C225.233 45.04 226.401 45.504 227.201 46.432C228.001 47.36 228.401 48.736 228.401 50.56Z" fill="#FEFEFE"/>
</g>
<g filter="url(#filter3_d_1167_37)">
<path d="M120.664 20.48C120.664 19.712 120.824 19.032 121.144 18.44C121.48 17.832 121.928 17.36 122.488 17.024C123.064 16.688 123.712 16.52 124.432 16.52C125.024 16.52 125.576 16.616 126.088 16.808C126.616 16.984 127.072 17.224 127.456 17.528C127.84 17.832 128.112 18.168 128.272 18.536V16.136C127.888 15.688 127.336 15.344 126.616 15.104C125.912 14.848 125.184 14.72 124.432 14.72C123.36 14.72 122.392 14.968 121.528 15.464C120.664 15.96 119.976 16.64 119.464 17.504C118.968 18.368 118.72 19.36 118.72 20.48C118.72 21.584 118.968 22.576 119.464 23.456C119.976 24.32 120.664 25 121.528 25.496C122.392 25.992 123.36 26.24 124.432 26.24C125.184 26.24 125.912 26.12 126.616 25.88C127.336 25.624 127.888 25.272 128.272 24.824V22.424C128.112 22.776 127.84 23.112 127.456 23.432C127.072 23.736 126.616 23.984 126.088 24.176C125.576 24.352 125.024 24.44 124.432 24.44C123.712 24.44 123.064 24.272 122.488 23.936C121.928 23.584 121.48 23.112 121.144 22.52C120.824 21.928 120.664 21.248 120.664 20.48ZM131.261 7.28V26H133.181V7.28H131.261ZM137.152 14.96V26H139.072V14.96H137.152ZM141.952 9.2L140.152 8.24L136.552 12.08L137.632 12.8L141.952 9.2ZM150.107 19.28V26H152.027V19.04C152.027 17.712 151.683 16.664 150.995 15.896C150.323 15.112 149.403 14.72 148.235 14.72C147.515 14.72 146.875 14.88 146.315 15.2C145.771 15.52 145.315 16.016 144.947 16.688V14.96H143.027V26H144.947V19.28C144.947 18.736 145.059 18.256 145.283 17.84C145.523 17.424 145.851 17.104 146.267 16.88C146.699 16.64 147.195 16.52 147.755 16.52C148.523 16.52 149.107 16.752 149.507 17.216C149.907 17.68 150.107 18.368 150.107 19.28ZM155.636 10.4C155.636 10.752 155.764 11.064 156.02 11.336C156.292 11.592 156.604 11.72 156.956 11.72C157.324 11.72 157.636 11.592 157.892 11.336C158.148 11.064 158.276 10.752 158.276 10.4C158.276 10.032 158.148 9.72 157.892 9.464C157.636 9.208 157.324 9.08 156.956 9.08C156.604 9.08 156.292 9.208 156.02 9.464C155.764 9.72 155.636 10.032 155.636 10.4ZM155.996 14.96V26H157.916V14.96H155.996ZM162.734 20.48C162.734 19.712 162.894 19.032 163.214 18.44C163.55 17.832 163.998 17.36 164.558 17.024C165.134 16.688 165.782 16.52 166.502 16.52C167.094 16.52 167.646 16.616 168.158 16.808C168.686 16.984 169.142 17.224 169.526 17.528C169.91 17.832 170.182 18.168 170.342 18.536V16.136C169.958 15.688 169.406 15.344 168.686 15.104C167.982 14.848 167.254 14.72 166.502 14.72C165.43 14.72 164.462 14.968 163.598 15.464C162.734 15.96 162.046 16.64 161.534 17.504C161.038 18.368 160.79 19.36 160.79 20.48C160.79 21.584 161.038 22.576 161.534 23.456C162.046 24.32 162.734 25 163.598 25.496C164.462 25.992 165.43 26.24 166.502 26.24C167.254 26.24 167.982 26.12 168.686 25.88C169.406 25.624 169.958 25.272 170.342 24.824V22.424C170.182 22.776 169.91 23.112 169.526 23.432C169.142 23.736 168.686 23.984 168.158 24.176C167.646 24.352 167.094 24.44 166.502 24.44C165.782 24.44 165.134 24.272 164.558 23.936C163.998 23.584 163.55 23.112 163.214 22.52C162.894 21.928 162.734 21.248 162.734 20.48ZM174.195 22.592C174.195 22.192 174.291 21.848 174.483 21.56C174.675 21.272 174.963 21.048 175.347 20.888C175.747 20.728 176.259 20.648 176.883 20.648C177.555 20.648 178.187 20.736 178.779 20.912C179.371 21.072 179.947 21.344 180.507 21.728V20.6C180.395 20.456 180.179 20.272 179.859 20.048C179.539 19.808 179.107 19.6 178.563 19.424C178.035 19.232 177.371 19.136 176.571 19.136C175.211 19.136 174.147 19.464 173.379 20.12C172.627 20.76 172.251 21.616 172.251 22.688C172.251 23.44 172.427 24.08 172.779 24.608C173.131 25.136 173.595 25.544 174.171 25.832C174.763 26.104 175.395 26.24 176.067 26.24C176.675 26.24 177.283 26.128 177.891 25.904C178.515 25.68 179.035 25.336 179.451 24.872C179.883 24.408 180.099 23.824 180.099 23.12L179.715 21.68C179.715 22.256 179.571 22.768 179.283 23.216C179.011 23.648 178.635 23.984 178.155 24.224C177.691 24.464 177.163 24.584 176.571 24.584C176.107 24.584 175.691 24.512 175.323 24.368C174.971 24.208 174.691 23.976 174.483 23.672C174.291 23.368 174.195 23.008 174.195 22.592ZM173.907 17.504C174.083 17.376 174.323 17.224 174.627 17.048C174.931 16.872 175.299 16.72 175.731 16.592C176.179 16.464 176.675 16.4 177.219 16.4C177.555 16.4 177.875 16.432 178.179 16.496C178.483 16.56 178.747 16.664 178.971 16.808C179.211 16.952 179.395 17.152 179.523 17.408C179.651 17.648 179.715 17.96 179.715 18.344V26H181.635V18.08C181.635 17.36 181.451 16.752 181.083 16.256C180.731 15.76 180.227 15.384 179.571 15.128C178.931 14.856 178.179 14.72 177.315 14.72C176.291 14.72 175.411 14.872 174.675 15.176C173.955 15.48 173.387 15.784 172.971 16.088L173.907 17.504Z" fill="#FEFEFE"/>
</g>
<defs>
<filter id="filter0_di_1167_37" x="41.623" y="28.0957" width="46.21" height="46.2104" filterUnits="userSpaceOnUse" color-interpolation-filters="sRGB">
<feFlood flood-opacity="0" result="BackgroundImageFix"/>
<feColorMatrix in="SourceAlpha" type="matrix" values="0 0 0 0 0 0 0 0 0 0 0 0 0 0 0 0 0 0 127 0" result="hardAlpha"/>
<feOffset dy="4"/>
<feGaussianBlur stdDeviation="2"/>
<feComposite in2="hardAlpha" operator="out"/>
<feColorMatrix type="matrix" values="0 0 0 0 0 0 0 0 0 0 0 0 0 0 0 0 0 0 0.25 0"/>
<feBlend mode="normal" in2="BackgroundImageFix" result="effect1_dropShadow_1167_37"/>
<feBlend mode="normal" in="SourceGraphic" in2="effect1_dropShadow_1167_37" result="shape"/>
<feColorMatrix in="SourceAlpha" type="matrix" values="0 0 0 0 0 0 0 0 0 0 0 0 0 0 0 0 0 0 127 0" result="hardAlpha"/>
<feOffset/>
<feGaussianBlur stdDeviation="12.5"/>
<feComposite in2="hardAlpha" operator="arithmetic" k2="-1" k3="1"/>
<feColorMatrix type="matrix" values="0 0 0 0 0.0117647 0 0 0 0 0.113725 0 0 0 0 0.219608 0 0 0 1 0"/>
<feBlend mode="normal" in2="shape" result="effect2_innerShadow_1167_37"/>
</filter>
<filter id="filter1_di_1167_37" x="0.726562" y="15.0312" width="119.184" height="29.6304" filterUnits="userSpaceOnUse" color-interpolation-filters="sRGB">
<feFlood flood-opacity="0" result="BackgroundImageFix"/>
<feColorMatrix in="SourceAlpha" type="matrix" values="0 0 0 0 0 0 0 0 0 0 0 0 0 0 0 0 0 0 127 0" result="hardAlpha"/>
<feOffset dy="4"/>
<feGaussianBlur stdDeviation="2"/>
<feComposite in2="hardAlpha" operator="out"/>
<feColorMatrix type="matrix" values="0 0 0 0 0 0 0 0 0 0 0 0 0 0 0 0 0 0 0.25 0"/>
<feBlend mode="normal" in2="BackgroundImageFix" result="effect1_dropShadow_1167_37"/>
<feBlend mode="normal" in="SourceGraphic" in2="effect1_dropShadow_1167_37" result="shape"/>
<feColorMatrix in="SourceAlpha" type="matrix" values="0 0 0 0 0 0 0 0 0 0 0 0 0 0 0 0 0 0 127 0" result="hardAlpha"/>
<feOffset dy="4"/>
<feGaussianBlur stdDeviation="5"/>
<feComposite in2="hardAlpha" operator="arithmetic" k2="-1" k3="1"/>
<feColorMatrix type="matrix" values="0 0 0 0 0.266667 0 0 0 0 0.25098 0 0 0 0 0.247059 0 0 0 1 0"/>
<feBlend mode="normal" in2="shape" result="effect2_innerShadow_1167_37"/>
</filter>
<filter id="filter2_d_1167_37" x="115" y="30.1602" width="121.24" height="43.52" filterUnits="userSpaceOnUse" color-interpolation-filters="sRGB">
<feFlood flood-opacity="0" result="BackgroundImageFix"/>
<feColorMatrix in="SourceAlpha" type="matrix" values="0 0 0 0 0 0 0 0 0 0 0 0 0 0 0 0 0 0 127 0" result="hardAlpha"/>
<feOffset dy="4"/>
<feGaussianBlur stdDeviation="2"/>
<feComposite in2="hardAlpha" operator="out"/>
<feColorMatrix type="matrix" values="0 0 0 0 0 0 0 0 0 0 0 0 0 0 0 0 0 0 0.25 0"/>
<feBlend mode="normal" in2="BackgroundImageFix" result="effect1_dropShadow_1167_37"/>
<feBlend mode="normal" in="SourceGraphic" in2="effect1_dropShadow_1167_37" result="shape"/>
</filter>
<filter id="filter3_d_1167_37" x="114.72" y="7.27979" width="70.915" height="26.9604" filterUnits="userSpaceOnUse" color-interpolation-filters="sRGB">
<feFlood flood-opacity="0" result="BackgroundImageFix"/>
<feColorMatrix in="SourceAlpha" type="matrix" values="0 0 0 0 0 0 0 0 0 0 0 0 0 0 0 0 0 0 127 0" result="hardAlpha"/>
<feOffset dy="4"/>
<feGaussianBlur stdDeviation="2"/>
<feComposite in2="hardAlpha" operator="out"/>
<feColorMatrix type="matrix" values="0 0 0 0 0 0 0 0 0 0 0 0 0 0 0 0 0 0 0.25 0"/>
<feBlend mode="normal" in2="BackgroundImageFix" result="effect1_dropShadow_1167_37"/>
<feBlend mode="normal" in="SourceGraphic" in2="effect1_dropShadow_1167_37" result="shape"/>
</filter>
</defs>
</svg>
